<svg aria-hidden="true" style="position: absolute; width: 0; height: 0; overflow: hidden;" version="1.1" xmlns="http://www.w3.org/2000/svg" xmlns:xlink="http://www.w3.org/1999/xlink">
<defs>
<symbol id="film" viewBox="0 0 32 32">
<path fill="none" stroke="#818181" style="stroke: var(--color1, #818181)" stroke-linejoin="round" stroke-linecap="round" stroke-miterlimit="4" stroke-width="2.6667" d="M26.427 2.667h-20.853c-1.605 0-2.907 1.301-2.907 2.907v0 20.853c0 1.605 1.301 2.907 2.907 2.907v0h20.853c1.605 0 2.907-1.301 2.907-2.907v0-20.853c0-1.605-1.301-2.907-2.907-2.907v0zM9.333 2.667v26.667M22.667 2.667v26.667M2.667 16h26.667M2.667 9.333h6.667M2.667 22.667h6.667M22.667 22.667h6.667M22.667 9.333h6.667"></path>
</symbol>
<symbol id="search" viewBox="0 0 32 32">
<path fill="none" stroke="#fff" style="stroke: var(--color2, #fff)" stroke-linejoin="round" stroke-linecap="round" stroke-miterlimit="4" stroke-width="2.6667" d="M14.667 25.333c5.891 0 10.667-4.776 10.667-10.667s-4.776-10.667-10.667-10.667v0c-5.891 0-10.667 4.776-10.667 10.667s4.776 10.667 10.667 10.667v0zM28 28l-5.8-5.8"></path>
</symbol>
<symbol id="heart" viewBox="0 0 34 32">
<path d="M17.231 31.705l-2.412-2.412c-8.96-7.926-14.818-13.268-14.818-19.815 0-5.342 4.135-9.477 9.477-9.477 2.929 0 5.858 1.378 7.754 3.618 1.895-2.24 4.825-3.618 7.754-3.618 5.342 0 9.477 4.135 9.477 9.477 0 6.548-5.858 11.889-14.818 19.815l-2.412 2.412z"></path>
</symbol>
<symbol id="icon-image-1417-1" viewBox="0 0 32 32">
<path d="M0 0h32v32h-32z"></path>
</symbol>
<symbol id="icon-image-1412" viewBox="0 0 32 32">
<path d="M0 0h32v32h-32v-32z"></path>
</symbol>
<symbol id="icon-moon-1" viewBox="0 0 32 32">
<path fill="#ffce31" style="fill: var(--color1, #ffce31)" d="M21.55 1c1.6 2.4 2.55 5.3 2.55 8.4 0.050 8.35-6.8 15.1-15.25 15.1-2.85 0-5.55-0.8-7.85-2.15 2.6 5.15 7.95 8.65 14.15 8.65 8.75 0 15.85-7 15.85-15.65 0-6.4-3.9-11.9-9.45-14.35z"></path>
</symbol>
<symbol id="icon-sun-1" viewBox="0 0 32 32">
<path fill="#f5c525" style="fill: var(--color8, #f5c525)" d="M32 16l-3.37 2.884 1.788 4.060-4.29 1.131-0.151 4.434-4.357-0.836-2.060 3.929-3.56-2.65-3.56 2.65-2.060-3.929-4.357 0.836-0.151-4.434-4.29-1.131 1.788-4.060-3.37-2.884 3.37-2.884-1.788-4.060 4.29-1.131 0.151-4.434 4.357 0.836 2.060-3.929 3.56 2.65 3.56-2.65 2.060 3.929 4.357-0.836 0.151 4.434 4.29 1.131-1.788 4.060z"></path>
<path fill="#f8a805" style="fill: var(--color9, #f8a805)" d="M26.667 16c0 5.891-4.776 10.667-10.667 10.667s-10.667-4.776-10.667-10.667c0-5.891 4.776-10.667 10.667-10.667s10.667 4.776 10.667 10.667z"></path>
</symbol>
</defs>
</svg>
