<svg aria-hidden="true" style="position: absolute; width: 0; height: 0; overflow: hidden;" version="1.1" xmlns="http://www.w3.org/2000/svg" xmlns:xlink="http://www.w3.org/1999/xlink">
<defs>
<symbol id="film" viewBox="0 0 32 32">
<path fill="none" stroke="#818181" style="stroke: var(--color1, #818181)" stroke-linejoin="round" stroke-linecap="round" stroke-miterlimit="4" stroke-width="2.6667" d="M26.427 2.667h-20.853c-1.605 0-2.907 1.301-2.907 2.907v0 20.853c0 1.605 1.301 2.907 2.907 2.907v0h20.853c1.605 0 2.907-1.301 2.907-2.907v0-20.853c0-1.605-1.301-2.907-2.907-2.907v0zM9.333 2.667v26.667M22.667 2.667v26.667M2.667 16h26.667M2.667 9.333h6.667M2.667 22.667h6.667M22.667 22.667h6.667M22.667 9.333h6.667"></path>
</symbol>
<symbol id="search" viewBox="0 0 32 32">
<path fill="none" stroke="#fff" style="stroke: var(--color2, #fff)" stroke-linejoin="round" stroke-linecap="round" stroke-miterlimit="4" stroke-width="2.6667" d="M14.667 25.333c5.891 0 10.667-4.776 10.667-10.667s-4.776-10.667-10.667-10.667v0c-5.891 0-10.667 4.776-10.667 10.667s4.776 10.667 10.667 10.667v0zM28 28l-5.8-5.8"></path>
</symbol>
<symbol id="heart" viewBox="0 0 34 32">
<path d="M17.231 31.705l-2.412-2.412c-8.96-7.926-14.818-13.268-14.818-19.815 0-5.342 4.135-9.477 9.477-9.477 2.929 0 5.858 1.378 7.754 3.618 1.895-2.24 4.825-3.618 7.754-3.618 5.342 0 9.477 4.135 9.477 9.477 0 6.548-5.858 11.889-14.818 19.815l-2.412 2.412z"></path>
</symbol>
<symbol id="icon-image-1417-1" viewBox="0 0 32 32">
<path d="M0 0h32v32h-32z"></path>
</symbol>
<symbol id="icon-image-1412" viewBox="0 0 32 32">
<path d="M0 0h32v32h-32v-32z"></path>
</symbol>
<symbol id="icon-moon-1" viewBox="0 0 32 32">
<path fill="#ffce31" style="fill: var(--color1, #ffce31)" d="M21.55 1c1.6 2.4 2.55 5.3 2.55 8.4 0.050 8.35-6.8 15.1-15.25 15.1-2.85 0-5.55-0.8-7.85-2.15 2.6 5.15 7.95 8.65 14.15 8.65 8.75 0 15.85-7 15.85-15.65 0-6.4-3.9-11.9-9.45-14.35z"></path>
</symbol>
<symbol id="icon-moon-2" viewBox="0 0 32 32">
<path fill="#f6bb42" style="fill: var(--color2, #f6bb42)" d="M17.332 9.341h-2.665c-0.368 0-0.667-0.298-0.667-0.667s0.299-0.667 0.667-0.667h2.665c0.369 0 0.668 0.298 0.668 0.667s-0.299 0.667-0.668 0.667z"></path>
<path fill="#ffce54" style="fill: var(--color3, #ffce54)" d="M25.33 22.67c-8.834 0-15.995-7.162-15.995-15.995 0-1.985 0.362-3.887 1.023-5.641-6.050 2.281-10.354 8.124-10.354 14.972 0 8.833 7.161 15.995 15.995 15.995 6.847 0 12.691-4.304 14.97-10.354-1.754 0.661-3.654 1.023-5.641 1.023z"></path>
<path fill="#f6bb42" style="fill: var(--color2, #f6bb42)" d="M17.332 30.667c-8.833 0-15.994-7.161-15.994-15.995 0-4.076 1.525-7.796 4.035-10.621-3.293 2.93-5.368 7.199-5.368 11.954 0 8.833 7.161 15.995 15.995 15.995 4.753 0 9.023-2.075 11.953-5.369-2.824 2.512-6.545 4.036-10.621 4.036z"></path>
<path fill="#4a89dc" style="fill: var(--color4, #4a89dc)" d="M23.998 8.674c0 0.368-0.299 0.667-0.668 0.667-0.367 0-0.666-0.298-0.666-0.667s0.299-0.667 0.666-0.667c0.369 0 0.668 0.298 0.668 0.667z"></path>
<path fill="#48cfad" style="fill: var(--color5, #48cfad)" d="M20.666 15.339c0 0.368-0.299 0.667-0.668 0.667-0.367 0-0.666-0.299-0.666-0.667s0.299-0.667 0.666-0.667c0.369 0 0.668 0.298 0.668 0.667z"></path>
<path fill="#ed5564" style="fill: var(--color6, #ed5564)" d="M31.994 7.331c0 0.368-0.299 0.667-0.666 0.667s-0.666-0.298-0.666-0.667c0-0.368 0.299-0.666 0.666-0.666s0.666 0.298 0.666 0.666z"></path>
<path fill="#ac92eb" style="fill: var(--color7, #ac92eb)" d="M19.998 0.666c0 0.368-0.297 0.667-0.666 0.667-0.367 0-0.666-0.298-0.666-0.667s0.299-0.666 0.666-0.666c0.369 0 0.666 0.298 0.666 0.666z"></path>
<path fill="#ffce54" style="fill: var(--color3, #ffce54)" d="M16.001 6.008c-0.368 0-0.667 0.299-0.667 0.667v3.999c0 0.368 0.299 0.666 0.667 0.666 0.367 0 0.666-0.298 0.666-0.666v-3.999c0-0.368-0.299-0.667-0.666-0.667z"></path>
<path fill="#f6bb42" style="fill: var(--color2, #f6bb42)" d="M27.33 13.339c-0.369 0-0.666 0.298-0.666 0.667v3.998c0 0.369 0.297 0.667 0.666 0.667 0.367 0 0.666-0.298 0.666-0.667v-3.998c0-0.368-0.299-0.667-0.666-0.667z"></path>
<path fill="#ffce54" style="fill: var(--color3, #ffce54)" d="M28.662 16.671h-2.666c-0.367 0-0.666-0.298-0.666-0.666s0.299-0.667 0.666-0.667h2.666c0.369 0 0.666 0.298 0.666 0.667s-0.297 0.666-0.666 0.666z"></path>
</symbol>
<symbol id="icon-sun-1" viewBox="0 0 32 32">
<path fill="#f5c525" style="fill: var(--color8, #f5c525)" d="M32 16l-3.37 2.884 1.788 4.060-4.29 1.131-0.151 4.434-4.357-0.836-2.060 3.929-3.56-2.65-3.56 2.65-2.060-3.929-4.357 0.836-0.151-4.434-4.29-1.131 1.788-4.060-3.37-2.884 3.37-2.884-1.788-4.060 4.29-1.131 0.151-4.434 4.357 0.836 2.060-3.929 3.56 2.65 3.56-2.65 2.060 3.929 4.357-0.836 0.151 4.434 4.29 1.131-1.788 4.060z"></path>
<path fill="#f8a805" style="fill: var(--color9, #f8a805)" d="M26.667 16c0 5.891-4.776 10.667-10.667 10.667s-10.667-4.776-10.667-10.667c0-5.891 4.776-10.667 10.667-10.667s10.667 4.776 10.667 10.667z"></path>
</symbol>
<symbol id="icon-sun-2" viewBox="0 0 32 32">
<path fill="#ffc114" style="fill: var(--color10, #ffc114)" d="M26.387 16c0 5.737-4.65 10.387-10.387 10.387s-10.387-4.65-10.387-10.387c0-5.737 4.65-10.387 10.387-10.387s10.387 4.65 10.387 10.387z"></path>
<path fill="#fca12a" style="fill: var(--color11, #fca12a)" d="M23.344 8.656c4.039 4.039 4.039 10.597 0 14.689-4.039 4.039-10.597 4.039-14.689 0z"></path>
<path fill="#ffc114" style="fill: var(--color10, #ffc114)" d="M13.482 4.459l2.518-4.459 2.518 4.459z"></path>
<path fill="#fca12a" style="fill: var(--color11, #fca12a)" d="M16.21 4.459l-0.21-4.459 2.518 4.459z"></path>
<path fill="#ffc114" style="fill: var(--color10, #ffc114)" d="M18.518 27.541l-2.518 4.459-2.518-4.459z"></path>
<path fill="#fca12a" style="fill: var(--color11, #fca12a)" d="M15.79 27.541l0.21 4.459-2.518-4.459z"></path>
<path fill="#ffc114" style="fill: var(--color10, #ffc114)" d="M27.541 13.482l4.459 2.518-4.459 2.518z"></path>
<path fill="#fca12a" style="fill: var(--color11, #fca12a)" d="M27.541 16.21l4.459-0.21-4.459 2.518z"></path>
<path fill="#ffc114" style="fill: var(--color10, #ffc114)" d="M4.459 18.518l-4.459-2.518 4.459-2.518z"></path>
<path fill="#fca12a" style="fill: var(--color11, #fca12a)" d="M4.459 15.79l-4.459 0.21 4.459-2.518z"></path>
<path fill="#ffc114" style="fill: var(--color10, #ffc114)" d="M22.557 5.875l4.931-1.364-1.364 4.931z"></path>
<path fill="#fca12a" style="fill: var(--color11, #fca12a)" d="M24.498 7.816l2.99-3.305-1.364 4.931z"></path>
<path fill="#ffc114" style="fill: var(--color10, #ffc114)" d="M9.443 26.125l-4.931 1.364 1.364-4.931z"></path>
<path fill="#fca12a" style="fill: var(--color11, #fca12a)" d="M7.502 24.184l-2.99 3.305 1.364-4.931z"></path>
<path fill="#ffc114" style="fill: var(--color10, #ffc114)" d="M26.125 22.557l1.364 4.931-4.931-1.364z"></path>
<path fill="#fca12a" style="fill: var(--color11, #fca12a)" d="M24.184 24.498l3.305 2.99-4.931-1.364z"></path>
<path fill="#ffc114" style="fill: var(--color10, #ffc114)" d="M5.875 9.443l-1.364-4.931 4.931 1.364z"></path>
<path fill="#fca12a" style="fill: var(--color11, #fca12a)" d="M7.816 7.502l-3.305-2.99 4.931 1.364z"></path>
</symbol>
</defs>
</svg>
